<svg id="visual" viewBox="0 0 900 600" width="900" height="600" xmlns="http://www.w3.org/2000/svg" xmlns:xlink="http://www.w3.org/1999/xlink" version="1.1"><g stroke-width="1" stroke-linejoin="bevel"><path d="M431 311L416 394L478 338Z" fill="#0058b0" stroke="#0058b0"></path><path d="M416 394L468 420L478 338Z" fill="#0058b0" stroke="#0058b0"></path><path d="M431 311L339 268L416 394Z" fill="#003058" stroke="#003058"></path><path d="M292 386L366 478L416 394Z" fill="#0058b0" stroke="#0058b0"></path><path d="M416 394L366 478L468 420Z" fill="#0061c7" stroke="#0061c7"></path><path d="M339 268L292 386L416 394Z" fill="#002643" stroke="#002643"></path><path d="M468 420L602 326L478 338Z" fill="#006bde" stroke="#006bde"></path><path d="M478 338L487 188L431 311Z" fill="#0375f6" stroke="#0375f6"></path><path d="M431 311L403 163L339 268Z" fill="#004e99" stroke="#004e99"></path><path d="M602 326L487 188L478 338Z" fill="#011b2f" stroke="#011b2f"></path><path d="M366 478L514 518L468 420Z" fill="#0061c7" stroke="#0061c7"></path><path d="M468 420L620 430L602 326Z" fill="#006bde" stroke="#006bde"></path><path d="M292 386L297 477L366 478Z" fill="#002643" stroke="#002643"></path><path d="M366 478L409 600L514 518Z" fill="#00101c" stroke="#00101c"></path><path d="M487 188L403 163L431 311Z" fill="#003058" stroke="#003058"></path><path d="M514 518L620 430L468 420Z" fill="#006bde" stroke="#006bde"></path><path d="M217 319L239 369L292 386Z" fill="#004483" stroke="#004483"></path><path d="M292 386L227 472L297 477Z" fill="#004483" stroke="#004483"></path><path d="M217 319L292 386L339 268Z" fill="#003a6d" stroke="#003a6d"></path><path d="M514 518L620 479L620 430Z" fill="#003a6d" stroke="#003a6d"></path><path d="M214 238L217 319L339 268Z" fill="#003058" stroke="#003058"></path><path d="M487 188L422 131L403 163Z" fill="#004483" stroke="#004483"></path><path d="M333 128L270 176L339 268Z" fill="#002643" stroke="#002643"></path><path d="M620 430L677 366L602 326Z" fill="#004483" stroke="#004483"></path><path d="M602 326L632 184L487 188Z" fill="#011b2f" stroke="#011b2f"></path><path d="M667 461L677 366L620 430Z" fill="#0061c7" stroke="#0061c7"></path><path d="M90 408L227 472L239 369Z" fill="#004e99" stroke="#004e99"></path><path d="M239 369L227 472L292 386Z" fill="#0061c7" stroke="#0061c7"></path><path d="M306 600L409 600L366 478Z" fill="#004483" stroke="#004483"></path><path d="M333 128L339 268L403 163Z" fill="#011b2f" stroke="#011b2f"></path><path d="M306 600L366 478L297 477Z" fill="#004e99" stroke="#004e99"></path><path d="M514 518L577 600L620 479Z" fill="#002643" stroke="#002643"></path><path d="M422 131L333 128L403 163Z" fill="#004e99" stroke="#004e99"></path><path d="M270 176L214 238L339 268Z" fill="#00101c" stroke="#00101c"></path><path d="M697 600L667 461L620 479Z" fill="#0058b0" stroke="#0058b0"></path><path d="M620 479L667 461L620 430Z" fill="#0375f6" stroke="#0375f6"></path><path d="M710 298L632 184L602 326Z" fill="#0061c7" stroke="#0061c7"></path><path d="M487 188L502 95L422 131Z" fill="#0061c7" stroke="#0061c7"></path><path d="M409 600L528 600L514 518Z" fill="#0061c7" stroke="#0061c7"></path><path d="M576 87L502 95L487 188Z" fill="#003058" stroke="#003058"></path><path d="M422 131L408 0L333 128Z" fill="#0375f6" stroke="#0375f6"></path><path d="M227 472L306 600L297 477Z" fill="#004e99" stroke="#004e99"></path><path d="M786 308L710 298L677 366Z" fill="#003058" stroke="#003058"></path><path d="M677 366L710 298L602 326Z" fill="#0058b0" stroke="#0058b0"></path><path d="M528 600L577 600L514 518Z" fill="#0061c7" stroke="#0061c7"></path><path d="M680 69L576 87L632 184Z" fill="#003a6d" stroke="#003a6d"></path><path d="M632 184L576 87L487 188Z" fill="#0058b0" stroke="#0058b0"></path><path d="M96 210L121 294L214 238Z" fill="#004e99" stroke="#004e99"></path><path d="M214 238L121 294L217 319Z" fill="#006bde" stroke="#006bde"></path><path d="M217 319L90 408L239 369Z" fill="#011b2f" stroke="#011b2f"></path><path d="M710 298L731 185L632 184Z" fill="#0058b0" stroke="#0058b0"></path><path d="M333 128L188 122L270 176Z" fill="#002643" stroke="#002643"></path><path d="M270 176L188 122L214 238Z" fill="#006bde" stroke="#006bde"></path><path d="M278 0L188 122L333 128Z" fill="#011b2f" stroke="#011b2f"></path><path d="M408 0L422 131L502 95Z" fill="#003a6d" stroke="#003a6d"></path><path d="M121 294L90 408L217 319Z" fill="#003058" stroke="#003058"></path><path d="M227 472L170 600L306 600Z" fill="#006bde" stroke="#006bde"></path><path d="M794 417L786 308L677 366Z" fill="#002643" stroke="#002643"></path><path d="M710 298L786 308L731 185Z" fill="#003a6d" stroke="#003a6d"></path><path d="M794 417L677 366L667 461Z" fill="#0375f6" stroke="#0375f6"></path><path d="M479 0L408 0L502 95Z" fill="#003a6d" stroke="#003a6d"></path><path d="M577 600L697 600L620 479Z" fill="#00101c" stroke="#00101c"></path><path d="M576 87L479 0L502 95Z" fill="#002643" stroke="#002643"></path><path d="M624 0L479 0L576 87Z" fill="#004483" stroke="#004483"></path><path d="M796 504L794 417L667 461Z" fill="#011b2f" stroke="#011b2f"></path><path d="M75 470L170 600L227 472Z" fill="#004e99" stroke="#004e99"></path><path d="M188 122L96 210L214 238Z" fill="#00101c" stroke="#00101c"></path><path d="M0 280L0 414L90 408Z" fill="#006bde" stroke="#006bde"></path><path d="M775 119L680 69L731 185Z" fill="#011b2f" stroke="#011b2f"></path><path d="M731 185L680 69L632 184Z" fill="#002643" stroke="#002643"></path><path d="M0 414L75 470L90 408Z" fill="#006bde" stroke="#006bde"></path><path d="M90 408L75 470L227 472Z" fill="#011b2f" stroke="#011b2f"></path><path d="M697 600L796 504L667 461Z" fill="#006bde" stroke="#006bde"></path><path d="M408 0L278 0L333 128Z" fill="#002643" stroke="#002643"></path><path d="M188 122L95 112L96 210Z" fill="#0061c7" stroke="#0061c7"></path><path d="M680 69L624 0L576 87Z" fill="#004483" stroke="#004483"></path><path d="M836 203L775 119L731 185Z" fill="#00101c" stroke="#00101c"></path><path d="M680 69L696 0L624 0Z" fill="#00101c" stroke="#00101c"></path><path d="M836 203L731 185L786 308Z" fill="#0061c7" stroke="#0061c7"></path><path d="M168 0L95 112L188 122Z" fill="#002643" stroke="#002643"></path><path d="M0 280L90 408L121 294Z" fill="#002643" stroke="#002643"></path><path d="M75 470L90 600L170 600Z" fill="#0061c7" stroke="#0061c7"></path><path d="M900 232L836 203L786 308Z" fill="#0058b0" stroke="#0058b0"></path><path d="M900 370L786 308L794 417Z" fill="#0058b0" stroke="#0058b0"></path><path d="M697 600L799 600L796 504Z" fill="#00101c" stroke="#00101c"></path><path d="M900 518L900 370L794 417Z" fill="#003a6d" stroke="#003a6d"></path><path d="M814 0L696 0L775 119Z" fill="#004483" stroke="#004483"></path><path d="M775 119L696 0L680 69Z" fill="#003a6d" stroke="#003a6d"></path><path d="M0 280L121 294L96 210Z" fill="#004e99" stroke="#004e99"></path><path d="M75 470L0 512L90 600Z" fill="#002643" stroke="#002643"></path><path d="M0 237L0 280L96 210Z" fill="#004e99" stroke="#004e99"></path><path d="M278 0L168 0L188 122Z" fill="#004483" stroke="#004483"></path><path d="M0 95L96 210L95 112Z" fill="#002643" stroke="#002643"></path><path d="M0 95L0 237L96 210Z" fill="#004e99" stroke="#004e99"></path><path d="M900 518L794 417L796 504Z" fill="#0058b0" stroke="#0058b0"></path><path d="M900 370L900 336L786 308Z" fill="#004483" stroke="#004483"></path><path d="M0 414L0 512L75 470Z" fill="#0061c7" stroke="#0061c7"></path><path d="M168 0L116 0L95 112Z" fill="#002643" stroke="#002643"></path><path d="M900 336L900 232L786 308Z" fill="#002643" stroke="#002643"></path><path d="M900 88L814 0L775 119Z" fill="#0061c7" stroke="#0061c7"></path><path d="M799 600L900 518L796 504Z" fill="#0061c7" stroke="#0061c7"></path><path d="M0 512L0 600L90 600Z" fill="#002643" stroke="#002643"></path><path d="M0 0L0 95L95 112Z" fill="#0061c7" stroke="#0061c7"></path><path d="M900 88L775 119L836 203Z" fill="#004e99" stroke="#004e99"></path><path d="M799 600L900 600L900 518Z" fill="#006bde" stroke="#006bde"></path><path d="M900 232L900 88L836 203Z" fill="#003058" stroke="#003058"></path><path d="M116 0L0 0L95 112Z" fill="#003058" stroke="#003058"></path><path d="M900 88L900 0L814 0Z" fill="#0058b0" stroke="#0058b0"></path></g></svg>